<?xml version="1.0" encoding="utf-8"?>
<!-- Generator: Adobe Illustrator 16.0.0, SVG Export Plug-In . SVG Version: 6.00 Build 0)  -->
<!DOCTYPE svg PUBLIC "-//W3C//DTD SVG 1.1//EN" "http://www.w3.org/Graphics/SVG/1.1/DTD/svg11.dtd">
<svg version="1.1" id="Capa_1" xmlns="http://www.w3.org/2000/svg" xmlns:xlink="http://www.w3.org/1999/xlink" x="0px" y="0px"
	 width="500px" height="500px" viewBox="0 0 500 500" enable-background="new 0 0 500 500" xml:space="preserve">
<path d="M338.096,109.524h-173.81c-30.952,0-54.762,23.81-54.762,54.762v57.143v21.428v95.239c0,30.952,23.81,54.762,54.762,54.762
	h171.428c30.953,0,54.763-23.81,54.763-54.762v-95.239v-21.428h2.382v-57.143C392.858,133.334,369.048,109.524,338.096,109.524z
	 M352.381,140.476h7.143v7.143v40.476l-47.619,2.381l-2.381-50H352.381z M207.143,226.191c0-2.381,2.381-2.381,2.381-4.762
	C219.048,207.143,233.333,200,250,200c16.666,0,30.952,9.524,40.477,21.428c0,2.381,2.381,2.381,2.381,4.762
	C297.619,233.333,300,240.476,300,250c0,28.57-23.811,50-50,50c-26.19,0-50-23.811-50-50
	C200,240.476,202.381,233.333,207.143,226.191z M361.905,235.714v100c0,14.285-11.904,26.188-26.19,26.188H161.906
	c-14.285,0-26.19-11.903-26.19-26.188v-100v-14.286h42.857c0,2.381-2.381,4.762-2.381,7.143c-2.381,7.143-2.381,14.286-2.381,21.429
	c0,40.477,33.333,76.189,76.19,76.189c40.476,0,76.19-33.332,76.19-76.189c0-7.143,0-14.286-2.382-21.429
	c0-2.381-2.381-4.761-4.761-7.143h42.856V235.714z"/>
</svg>
