<?xml version="1.0" encoding="utf-8"?>
<!-- Generator: Adobe Illustrator 16.0.0, SVG Export Plug-In . SVG Version: 6.00 Build 0)  -->
<!DOCTYPE svg PUBLIC "-//W3C//DTD SVG 1.1//EN" "http://www.w3.org/Graphics/SVG/1.1/DTD/svg11.dtd">
<svg version="1.1" id="Layer_1" xmlns="http://www.w3.org/2000/svg" xmlns:xlink="http://www.w3.org/1999/xlink" x="0px" y="0px"
	 width="500px" height="500px" viewBox="0 0 500 500" enable-background="new 0 0 500 500" xml:space="preserve">
<g id="Capa_2">
</g>
<path d="M364.223,366.559c-14.887,7.444-34.738,9.924-57.07,4.965c-37.22-7.446-79.401-34.74-119.104-74.442
	c-37.22-39.701-64.514-81.882-71.957-119.102c-2.481-19.851,0-39.702,7.444-54.59c9.926-17.37,24.813-29.775,47.146-34.738l0,0
	h2.481c2.481,0,4.962,0,4.962,2.482l49.627,81.883l0,0l0,0v4.963l0,0l0,0l-19.851,19.852l2.481,4.962
	c24.813,39.701,49.627,64.514,79.403,79.402l2.479,2.483l19.851-19.852l2.483-2.482h2.482c0,0,0,0,2.48,0l79.402,49.628
	c2.481,2.482,2.481,4.963,2.481,7.442C393.999,341.745,381.591,359.114,364.223,366.559z"/>
</svg>
